<svg xmlns="http://www.w3.org/2000/svg" viewBox="0 0 960 600" role="img" aria-label="warehouse boxes with cargo tags">
  <rect width="960" height="600" fill="#d9e0e8"/>
  <rect y="388" width="960" height="212" fill="#b7c2cf"/>
  <g fill="none" stroke="#8794a4" stroke-width="8" opacity=".55">
    <path d="M0 110h960M0 210h960M80 0v392M220 0v392M410 0v392M620 0v392M820 0v392"/>
  </g>
  <g transform="translate(92 122)">
    <rect x="0" y="104" width="150" height="122" rx="4" fill="#c99342"/>
    <rect x="152" y="88" width="170" height="138" rx="4" fill="#d7a34f"/>
    <rect x="52" y="0" width="160" height="102" rx="4" fill="#e0b765"/>
    <rect x="214" y="0" width="122" height="86" rx="4" fill="#c99240"/>
    <rect x="10" y="236" width="174" height="132" rx="4" fill="#d8a653"/>
    <rect x="186" y="236" width="138" height="132" rx="4" fill="#c58a35"/>
    <g fill="#503615" font-family="Arial, sans-serif" font-size="22" font-weight="700">
      <text x="24" y="150">FRZ-01</text>
      <text x="176" y="130">FRAGILE</text>
      <text x="72" y="54">COLD</text>
      <text x="214" y="292">KYOTO</text>
    </g>
  </g>
  <g transform="translate(514 94)">
    <rect x="0" y="0" width="174" height="118" rx="4" fill="#d2a04b"/>
    <rect x="176" y="0" width="164" height="118" rx="4" fill="#c8903c"/>
    <rect x="0" y="120" width="174" height="118" rx="4" fill="#e0b76a"/>
    <rect x="176" y="120" width="164" height="118" rx="4" fill="#d8a552"/>
    <rect x="18" y="240" width="148" height="120" rx="4" fill="#c58932"/>
    <rect x="168" y="240" width="176" height="120" rx="4" fill="#d5a04b"/>
    <g fill="#503615" font-family="Arial, sans-serif" font-size="23" font-weight="700">
      <text x="28" y="64">MCH-03</text>
      <text x="202" y="64">HEAVY</text>
      <text x="28" y="186">NAGOYA</text>
      <text x="202" y="186">MED-05</text>
      <text x="196" y="305">RET-06</text>
    </g>
  </g>
  <rect x="0" y="0" width="960" height="600" fill="url(#sun)" opacity=".28"/>
  <defs>
    <linearGradient id="sun" x1="1" y1="0" x2=".2" y2=".8">
      <stop stop-color="#ffb86b"/>
      <stop offset=".55" stop-color="#ffffff" stop-opacity="0"/>
    </linearGradient>
  </defs>
</svg>
